<?xml version="1.0" encoding="UTF-8"?>
<svg id="Layer_1" data-name="Layer 1" xmlns="http://www.w3.org/2000/svg" viewBox="0 0 387.85 213.34">
  <defs>
    <style>
      .cls-1 {
        fill: none;
        stroke: #231f20;
        stroke-miterlimit: 10;
        stroke-width: .75px;
      }
    </style>
  </defs>
  <path class="cls-1" d="m25.62.39c7.66.41,133.95,1.34,140.56,1.35l.22,4.57c-6.64-.1-11.12-.24-19.55-.21,0,0,84.5,122.34,88.53,127.28"/>
  <path class="cls-1" d="m5.89,9.96V.39c4.09.21,11.66.08,22.36.08"/>
  <path class="cls-1" d="m57.91,8.7C10.41,8.7,12.08,54.43,12.08,54.43c-2.52.02-3-.06-6.19,0,0,0,0-39.51,0-44.47"/>
  <path class="cls-1" d="m111.58,19.1c-.11-1.82-.02-6.48-.13-10.4,0,0-51.25.03-53.54,0"/>
  <path class="cls-1" d="m51.27,60.8c3.95,40.81,60.91,34.79,60.91,34.79.2-3.74-.17-70.11-.63-76.9"/>
  <path class="cls-1" d="m41.99,62.51c-.05-2.81.19-8.04.19-8.04,3.38,0,2.6,0,5.49,0h3.28c.1,2.35-.06,3.24.31,6.32"/>
  <path class="cls-1" d="m49.9,136.1c-.03,4.07-.01,3.82,0,8.99,0,0-1.15.16-3.26.23-1.91.06-2.7-.06-4.38-.1,0,0-.2-77.32-.3-85.61"/>
  <path class="cls-1" d="m112.07,109.21c.05-3.36.02-.69.02-6.74,0,0-61.23-4.22-62.19,33.63"/>
  <path class="cls-1" d="m53.57,202.67c9.27.2,58.67.52,58.67.52.4-5.64,0-86.24-.17-93.98"/>
  <path class="cls-1" d="m.96,204.92c.06-6.07-.46-42.26-.58-49.23,0,0,4.61.1,5.37.04,1.4-.12,3.64-.02,3.64-.02.07,1.27,3.66,46.8,44.18,46.97"/>
  <path class="cls-1" d="m13.77,211.5c-6.9.2-5.3.21-12.94.38,0,0,0-1.86.14-7.6"/>
  <path class="cls-1" d="m142.9,62.51c-.02.61-.57,119.8-.34,128.59.13,4.97.25,7.83,2.35,10.09,1.49,1.6,3.42,2.31,5.38,3.03,2.22.81,3.95.99,7.4,1.35,4.32.44,9.58.47,10.04.34,0,0,.05-.03.05,0,.01,2.95-.13,2.2.04,5.22,0,0-149.24.32-154.07.38"/>
  <path class="cls-1" d="m232.58,181.05c-3.43-5.65-90.21-128.28-90.21-128.28.29,3.7,0-.45.53,9.93"/>
  <path class="cls-1" d="m235.58,185.23c-1.57-1.9-2.42-3.35-3.29-4.64"/>
  <path class="cls-1" d="m380.44,212.93c-1.91.03-159.22-.83-164.51-.83t-.15-4.01c-.04-1.07-.07-2.08-.07-2.08,4.11.37,40.1,4.84,19.88-20.77"/>
  <path class="cls-1" d="m332.45,203.64c37.77-.87,44.34-42.14,45.05-46.98,0,0,1.49-.02,3.9-.07s0,0,3.25-.07c0,0-.02,3.56.03,6.43.11,6.63.14-2.21.02,5.66-.07,4.51.03,3.28-.02,6.49-.03,1.64,0,2.14,0,7.67,0,5.51-.02,5.2,0,8.08.03,3.82.11,3.74.11,6.77,0,7.87-.02,4.42-.11,8.7-.09,4.12.12,6.49.12,6.49-3.86.16-1.98.18-4.76.1"/>
  <path class="cls-1" d="m271.7,118.8c-.38,14.27-1.41,74.92-1.54,84.55,0,0,51.19.16,62.29.28"/>
  <path class="cls-1" d="m333.18,139.35c-4.2-42.48-54.94-34.24-61.62-34.24,0,0,.01,1.13.13,13.69"/>
  <path class="cls-1" d="m339.77,135.2c.11,2.85.5,8.5.22,12.48-3.35.07-1.24.03-5.4.4,0,0-1.03-5.75-1.4-9.48"/>
  <path class="cls-1" d="m282.2,98.07c50.17,3.56,50.15-34.35,51.35-42.47,0,0,2.22.25,6.43,0,0,0-.35,74.15-.22,79.6"/>
  <path class="cls-1" d="m271.36,20.71c-.07,4.8,0,76.94,0,76.94,9.17.48,9.65.44,12.22.52"/>
  <path class="cls-1" d="m330.06,8.6c-3.58-.22-59.41,0-59.41,0,.53,6.15.29,4.04.69,13.22"/>
  <path class="cls-1" d="m355.41,2.03c12.78.09,29.38-.48,29.38-.48.14,7.1.4,4.29.6,11.92.18,6.9.47,8.56.86,17.32.84,18.79,1.19,23.65,1.19,23.65h-4.97s3.99-45.93-52.41-45.83"/>
  <path class="cls-1" d="m241.25,25.39c.02-5.33.47-13.68.45-19.06,0,0-5.22-.14-5.54-.14-3.63-.07-1.79.07-9.8-.11-4.41-.1-1.63.17-8.82-.27l.18-4.26c14.85.12,135.67.49,137.7.48"/>
  <path class="cls-1" d="m234.57,132.31s6.48,9.18,6.48,9.18c.01,0-.13-114.88.3-120.14"/>
</svg>